<svg width="24" height="24" viewBox="0 0 24 24" fill="none" xmlns="http://www.w3.org/2000/svg">
<g id="ic_new">
<path id="Union" fill-rule="evenodd" clip-rule="evenodd" d="M16.5405 4.93243H16.0405V5.43243V9.32433H17.0405V6.76588C17.9951 7.93458 18.5676 9.4275 18.5676 11.0541C18.5676 14.8007 15.5304 17.8379 11.7838 17.8379C8.0372 17.8379 5 14.8007 5 11.0541C5 9.36316 5.6187 7.81668 6.64207 6.62874L5.93325 5.91992C4.72973 7.29027 4 9.08698 4 11.0541C4 15.353 7.48492 18.8379 11.7838 18.8379C16.0826 18.8379 19.5676 15.353 19.5676 11.0541C19.5676 9.09296 18.8423 7.3012 17.6453 5.93243H20V4.93243H16.5405Z" fill="black"/>
</g>
</svg>
